<?xml version="1.0" encoding="UTF-8" standalone="no"?>
<svg
   width="155.73032"
   height="155.73033"
   viewBox="0 0 174.99998 175"
   class="css-1j8o68f"
   version="1.1"
   id="svg19"
   sodipodi:docname="logotype.svg"
   xmlns:inkscape="http://www.inkscape.org/namespaces/inkscape"
   xmlns:sodipodi="http://sodipodi.sourceforge.net/DTD/sodipodi-0.dtd"
   xmlns="http://www.w3.org/2000/svg"
   xmlns:svg="http://www.w3.org/2000/svg">
  <sodipodi:namedview
     id="namedview21"
     pagecolor="#ffffff"
     bordercolor="#666666"
     borderopacity="1.0"
     inkscape:showpageshadow="2"
     inkscape:pageopacity="0.0"
     inkscape:pagecheckerboard="0"
     inkscape:deskcolor="#d1d1d1"
     showgrid="false" />
  <defs
     id="SvgjsDefs1282" />
  <g
     id="SvgjsG1283"
     featurekey="symbolContainer"
     transform="scale(3.5)"
     fill="#ff847c"
     inkscape:export-filename="isotype.svg"
     inkscape:export-xdpi="305.163"
     inkscape:export-ydpi="305.163">
    <circle
       cx="25"
       cy="25"
       r="25"
       id="circle3" />
  </g>
  <g
     id="SvgjsG1284"
     featurekey="symbolFeature-0"
     transform="matrix(1.151331,0,0,1.151331,30.433453,30.021276)"
     fill="#111111">
    <g
       id="g10">
      <path
         d="m 61.077,71.365 c -2.397,-0.064 -5.648,-3.1 -6.696,-4.263 -0.459,-0.506 -1.207,-0.624 -1.803,-0.283 l -3.136,3.02 -3.14,-3.02 c -0.595,-0.341 -1.345,-0.223 -1.803,0.283 -1.047,1.163 -4.3,4.198 -6.697,4.263 -0.567,0.012 -1.073,0.357 -1.292,0.878 -0.219,0.52 0.515,1.119 0.904,1.529 0.235,0.246 5.494,5.024 11.944,5.105 v 0.005 c 0.028,0 0.054,0 0.083,-0.002 0.028,0.002 0.054,0.002 0.081,0.002 v -0.005 c 6.447,-0.081 11.709,-4.859 11.942,-5.105 0.389,-0.41 1.125,-1.01 0.907,-1.529 -0.218,-0.52 -0.727,-0.866 -1.294,-0.878 z"
         id="path6" />
      <path
         d="M 50,6.93 C 26.055,6.93 6.572,26.252 6.572,50 6.572,73.75 26.055,93.07 49.999,93.07 73.945,93.07 93.428,73.75 93.428,50 93.428,26.252 73.946,6.93 50,6.93 Z M 14.025,59.938 c -0.892,-3.163 -1.377,-6.494 -1.377,-9.937 0,-20.426 16.756,-37.044 37.351,-37.044 12.322,0 23.263,5.95 30.072,15.103 -0.91,2.542 -2.797,6.417 -6.605,10.259 -10.846,10.934 -28.649,13.23 -41.68,13.23 -11.525,0 -15.9,4.903 -17.482,7.823 -0.102,0.19 -0.191,0.378 -0.279,0.566 z M 50,87.046 c -16.054,0 -29.776,-10.102 -35.045,-24.231 0.187,-0.861 0.495,-1.733 0.957,-2.585 2.398,-4.431 8.037,-6.873 15.875,-6.873 24.327,0 36.85,-7.541 43.074,-13.868 3.438,-3.495 5.385,-6.977 6.477,-9.609 3.799,5.797 6.016,12.706 6.016,20.121 C 87.352,70.427 70.595,87.046 50,87.046 Z"
         id="path8" />
    </g>
  </g>
</svg>
