<?xml version="1.0" encoding="UTF-8" standalone="no"?>
<svg
   version="1.0"
   width="168.76282pt"
   height="233.58607pt"
   viewBox="0 0 168.76282 233.58607"
   preserveAspectRatio="xMidYMid"
   id="svg12"
   sodipodi:docname="perversionis-design-system.svg"
   inkscape:version="1.2.2 (b0a8486541, 2022-12-01)"
   inkscape:export-filename="logo-pvs.svg"
   inkscape:export-xdpi="305.163"
   inkscape:export-ydpi="305.163"
   xmlns:inkscape="http://www.inkscape.org/namespaces/inkscape"
   xmlns:sodipodi="http://sodipodi.sourceforge.net/DTD/sodipodi-0.dtd"
   xmlns="http://www.w3.org/2000/svg"
   xmlns:svg="http://www.w3.org/2000/svg">
  <defs
     id="defs16" />
  <sodipodi:namedview
     id="namedview14"
     pagecolor="#ffffff"
     bordercolor="#666666"
     borderopacity="1.0"
     inkscape:showpageshadow="2"
     inkscape:pageopacity="0.0"
     inkscape:pagecheckerboard="0"
     inkscape:deskcolor="#d1d1d1"
     inkscape:document-units="pt"
     showgrid="false"
     inkscape:zoom="0.41196941"
     inkscape:cx="1245.2381"
     inkscape:cy="875.06498"
     inkscape:window-width="1920"
     inkscape:window-height="1088"
     inkscape:window-x="0"
     inkscape:window-y="0"
     inkscape:window-maximized="1"
     inkscape:current-layer="svg12" />
  <metadata
     id="metadata2">
Created by potrace 1.16, written by Peter Selinger 2001-2019
</metadata>
  <g
     id="g1734"
     inkscape:export-filename="./perversionis-logo-red-on-dark.png"
     inkscape:export-xdpi="305.163"
     inkscape:export-ydpi="305.163"
     transform="translate(-182.68805,-131.25716)">
    <g
       id="g441"
       style="fill:#e61a8c;fill-opacity:1"
       transform="matrix(0.34068948,0,0,0.34068948,-70.033893,45.966327)">
      <g
         transform="matrix(0.1,0,0,-0.1,0,1200)"
         fill="#000000"
         stroke="none"
         id="g10"
         style="fill:#e61a8c;fill-opacity:1">
        <g
           id="g12413">
          <path
             d="m 7417.9554,2641.5228 1887.6892,-1.2747 c 243.7944,1104.1386 -501.4772,1817.215 -893,2541.2747 -182,361 -225.9175,637.0422 -62,743 379.6228,245.3919 294.0999,109.8334 1208,445 2,-2 -23,-82 -56,-177 -33,-96 -58,-175 -56,-177 11,-11 623.0004,1280 672.0004,1416 20,58 57,143 81,190 30.137,69.1776 76.428,168.7033 92,228 60,246 125,498 141,546 30.995,99.2652 24.138,57.0926 58,152 38,104 28,182 -46,385 -11,31 -18,65 -15,76 44.132,66.3822 208.472,-34.2173 247,-76 99,-109 137,-225 162,-486 3,-33 14,-114 25,-180 10,-66 21,-148 23,-181 3,-34 16,-88 30,-120 62.422,-143.0855 -9.348,-193.3708 -123,-254 -88,-45 -99,-54 -114,-90 -19,-48 -36,-119 -42,-175 -2,-22 -9,-78 -14,-125 -11,-89 -31,-502 -25,-508 2,-2 65,37 140,87 75,49 190,117 255,150 76,39 129,73 150,98 29,33 85,141 135,260 22,54 50,62 89,25 90.492,-114.9826 83.745,-233.7626 47,-362 -18,-65 -66,-147 -176,-300 -99,-138 -162.844,-241.083 -254,-412 -28.844,-54.0833 -90.088,-87.7476 -105.088,-97.7476 -154.732,-67.0262 -221.253,41.2258 -374,46 -44.394,-59.8235 -284.049,-392.7848 -353.608,-485.4562 -63.958,-88.2606 150.193,-304.6859 274.696,-404.7962 51,-40 148,-112 217,-161 69,-48 168,-120 220,-159 52,-39 353.2,-262.531 361.2,-266.531 0,0 1146.677,620.504 1146.677,2150.531 0,1789.0211 -1401.785,2512.5543 -2532.0374,2512.5543 l -2420.84,2.4457 z"
             id="path6"
             sodipodi:nodetypes="cccsccsccccccccccccccccscccccccscccccscsccc"
             inkscape:export-filename="iso.png"
             inkscape:export-xdpi="305.163"
             inkscape:export-ydpi="305.163"
             style="fill:#e61964;fill-opacity:1" />
          <path
             d="m 9102.4951,5480.3733 c 144.6076,-77.7971 379.1495,-234.8505 379.1495,-234.8505 -70.1217,127.4282 -107.9848,299.4475 -177,421 0,0 -103.1943,-101.4358 -202.1495,-186.1495 z"
             id="path8"
             sodipodi:nodetypes="cccc"
             style="fill:#e61a8c;fill-opacity:1" />
        </g>
      </g>
    </g>
  </g>
</svg>
