<?xml version="1.0" encoding="UTF-8" standalone="no"?>
<svg
   width="396"
   height="155.73033"
   viewBox="0 0 445 175"
   class="css-1j8o68f"
   version="1.1"
   id="svg421"
   xmlns="http://www.w3.org/2000/svg"
   xmlns:svg="http://www.w3.org/2000/svg">
  <defs
     id="SvgjsDefs1282" />
  <g
     id="SvgjsG1283"
     featurekey="symbolContainer"
     transform="matrix(3.5,0,0,3.5,0,-1.5894572e-6)"
     fill="#ff847c">
    <circle
       cx="25"
       cy="25"
       r="25"
       id="circle405" />
  </g>
  <g
     id="SvgjsG1284"
     featurekey="symbolFeature-0"
     transform="matrix(1.151331,0,0,1.151331,30.433453,29.933448)"
     fill="#111111">
    <g
       id="g412">
      <path
         d="m 61.077,71.365 c -2.397,-0.064 -5.648,-3.1 -6.696,-4.263 -0.459,-0.506 -1.207,-0.624 -1.803,-0.283 l -3.136,3.02 -3.14,-3.02 c -0.595,-0.341 -1.345,-0.223 -1.803,0.283 -1.047,1.163 -4.3,4.198 -6.697,4.263 -0.567,0.012 -1.073,0.357 -1.292,0.878 -0.219,0.52 0.515,1.119 0.904,1.529 0.235,0.246 5.494,5.024 11.944,5.105 v 0.005 c 0.028,0 0.054,0 0.083,-0.002 0.028,0.002 0.054,0.002 0.081,0.002 v -0.005 c 6.447,-0.081 11.709,-4.859 11.942,-5.105 0.389,-0.41 1.125,-1.01 0.907,-1.529 -0.218,-0.52 -0.727,-0.866 -1.294,-0.878 z"
         id="path408" />
      <path
         d="M 50,6.93 C 26.055,6.93 6.572,26.252 6.572,50 6.572,73.75 26.055,93.07 49.999,93.07 73.945,93.07 93.428,73.75 93.428,50 93.428,26.252 73.946,6.93 50,6.93 Z M 14.025,59.938 c -0.892,-3.163 -1.377,-6.494 -1.377,-9.937 0,-20.426 16.756,-37.044 37.351,-37.044 12.322,0 23.263,5.95 30.072,15.103 -0.91,2.542 -2.797,6.417 -6.605,10.259 -10.846,10.934 -28.649,13.23 -41.68,13.23 -11.525,0 -15.9,4.903 -17.482,7.823 -0.102,0.19 -0.191,0.378 -0.279,0.566 z M 50,87.046 c -16.054,0 -29.776,-10.102 -35.045,-24.231 0.187,-0.861 0.495,-1.733 0.957,-2.585 2.398,-4.431 8.037,-6.873 15.875,-6.873 24.327,0 36.85,-7.541 43.074,-13.868 3.438,-3.495 5.385,-6.977 6.477,-9.609 3.799,5.797 6.016,12.706 6.016,20.121 C 87.352,70.427 70.595,87.046 50,87.046 Z"
         id="path410" />
    </g>
  </g>
  <g
     id="SvgjsG1285"
     featurekey="nameFeature-0"
     transform="matrix(3.1581608,0,0,3.1581608,195.88428,-4.6551337)"
     fill="#fecea8">
    <path
       d="m 11.16,24.08 c 0,-1.76 0.24,-3.6 1.04,-5.2 1.64,-3.52 4.76,-5.12 8.52,-5.12 1.56,0.08 3.12,1.08 3.12,2.76 0,2.16 -1.72,4.08 -3.28,5.28 l -0.48,-0.64 c 0,-0.04 0,-0.04 0.04,-0.08 0.04,-0.04 0.32,-0.28 0.36,-0.32 1.08,-1.08 2.12,-2.4 2.12,-4.04 0,-1.6 -1.4,-1.8 -2.68,-1.8 -2.08,0.24 -3.16,2.72 -3.56,4.48 -0.16,0.84 -0.2,1.64 -0.2,2.48 0,0.72 0,1.24 0.08,1.96 l 0.72,5.6 0.12,1.68 c 0,2.24 -0.28,4.2 -1.36,6.2 -2.08,3.96 -6.32,6.4 -10.8,6.4 -3.44,0 -5.2,-2 -5.2,-5.32 0,-0.84 0.12,-1.68 0.32,-2.48 0.04,-0.4 0.28,-1.16 0.76,-1.16 0.24,0 0.4,0.16 0.48,0.4 v 0.2 c 0,0.56 -0.2,1.12 -0.28,1.68 -0.08,0.48 -0.08,0.92 -0.08,1.4 0,2.64 1.4,4.12 4,4.12 4.96,0 6.84,-6.24 6.84,-10.24 0,-0.48 0,-0.96 -0.04,-1.44 L 11.2,25.64 c 0,-0.08 -0.04,-1 -0.04,-1.32 z m 8.92,11.84 c 0,-0.92 0.84,-1.84 1.76,-1.84 h 0.24 c 0.44,0.08 0.72,0.4 0.8,0.84 v 0.2 c 0,0.92 -0.8,1.88 -1.76,1.88 -0.6,0 -1.04,-0.48 -1.04,-1.08 z m 15.28,-17.28 2.96,-5.56 0.28,-0.44 c 0.88,0.36 2.72,0.8 2.72,2 0,0.16 0,0.36 -0.12,0.52 l -1.52,2.92 v 0.04 c 0.32,0 0.64,-0.04 0.96,-0.04 1.4,0 2.8,0.4 2.8,2 0,0.96 -0.52,1.76 -1.12,2.48 H 42.2 c -0.28,0 -0.72,-0.16 -0.72,-0.52 0,-0.36 0.16,-0.72 0.16,-1.04 0,-0.96 -0.76,-0.96 -1.48,-0.96 -0.4,0.04 -1.44,0.16 -1.44,0.16 h -0.08 l -0.96,1.96 -2.6,6 -0.72,2.04 c -0.32,1 -0.64,2.12 -0.64,3.2 0,0.52 0.08,1.24 0.72,1.32 2,0 3.56,-1.28 4.92,-2.6 l 0.88,-0.88 1.48,-1.68 3.28,-4.12 c 0,0 0.2,-0.28 0.28,-0.4 0.04,-0.08 0.04,-0.16 0.04,-0.2 l 0.04,-0.04 c 0.4,0 0.92,0.08 0.92,0.6 v 0.08 L 43.64,29 40.52,32.56 39,34.04 c -0.08,0.12 -0.88,0.8 -1.16,1 -1,0.8 -2.36,1.76 -3.72,1.76 -2.76,0 -3.96,-1.84 -3.96,-4.44 0,-1.2 0.2,-2.4 0.6,-3.52 L 31.4,27 32.52,24.32 34.36,20.6 c -1.68,-0.12 -3.52,-0.68 -3.52,-2.76 0,-0.56 0.04,-2 0.84,-2 0.24,0 0.56,0.16 0.56,0.44 0,0.24 -0.08,0.48 -0.08,0.72 0,1.52 1.44,1.68 2.64,1.68 0.16,0 0.56,-0.04 0.56,-0.04 z m 5.96,13.16 c 0,-1.8 1.04,-3.72 1.96,-5.2 1.48,-2.32 4.48,-6.04 7.6,-6.04 1.48,0 2.08,1.08 2.08,2.48 0,1.8 -0.96,3.64 -1.8,5.2 0.4,0 0.8,-0.12 1.16,-0.28 1.84,-0.68 3.36,-2.16 4.44,-3.72 L 56.8,24.2 c 0.48,0 0.64,0.08 0.8,0.6 -0.08,0.16 -0.4,0.56 -0.4,0.6 -0.04,0.04 -0.28,0.36 -0.36,0.44 -1.56,1.84 -3.92,3.52 -6.4,3.52 v 0.04 c -1.2,1.6 -4.16,5.28 -6.36,5.28 -1.76,0 -2.76,-1.12 -2.76,-2.88 z m 7.32,-6 c 0,0.76 0.12,1.76 0.84,2.24 0.12,0.04 0.28,0.16 0.44,0.16 0.92,-1.36 2,-3.52 2,-5.2 0,-0.72 -0.28,-1.4 -1.08,-1.4 -1.12,0 -1.88,1.84 -2.04,2.72 -0.12,0.48 -0.16,0.96 -0.16,1.48 z M 44.8,32 c 0,0.32 0.08,0.64 0.44,0.64 0.8,0 1.6,-0.72 2.08,-1.24 0.12,-0.08 0.56,-0.52 0.64,-0.64 0.12,-0.16 0.8,-0.96 0.96,-1.12 0.04,-0.08 0.32,-0.44 0.36,-0.48 0,-0.04 -0.52,-0.28 -0.6,-0.32 -0.88,-0.56 -1.32,-1.48 -1.52,-2.52 v 0.04 c -0.04,0 -0.32,0.48 -0.44,0.68 C 46.04,28.2 44.8,30.6 44.8,32 Z m 12.44,-8.72 c 0.32,0.16 0.6,0.2 0.92,0.32 0.16,0.08 0.92,0.36 1.08,0.4 0.2,0.12 0.36,0.28 0.36,0.48 0,0.12 -0.04,0.24 -0.12,0.32 l -0.52,1 -1.64,3.52 C 57.28,29.4 57.08,30 57,30.16 c -0.16,0.48 -0.32,0.96 -0.32,1.48 0,0.04 -0.04,0.2 0.08,0.2 0.28,0 0.64,-0.28 0.8,-0.4 0.08,-0.08 0.56,-0.44 0.64,-0.56 0.04,0 0.16,-0.12 0.2,-0.16 0.24,-0.24 1,-1 1.12,-1.08 0.84,-0.92 1.64,-1.92 2.08,-3.08 l 1.12,-2.96 c 0,0 0.44,0.08 0.56,0.08 0.64,0.12 1.76,0.52 1.76,1.32 0,0.24 -0.08,0.48 -0.12,0.68 l -1.68,4.84 0.72,-0.52 1.56,-1.36 1.08,-1.08 c 0.2,-0.2 0.84,-0.92 0.92,-1 L 68.76,25 h 0.08 c 0.32,0 0.56,0.16 0.56,0.48 v 0.08 l -1.08,1.36 -1.24,1.36 -1.24,1.2 -1.52,1.28 -1.56,1.16 c -0.04,0.04 -0.08,0.08 -0.08,0.12 l -1.6,3.92 -1.52,3.24 -0.92,1.72 -0.88,1.32 c -0.96,1.48 -2.16,2.44 -3.76,3.08 -0.72,0.24 -1.44,0.4 -2.2,0.4 -1.36,0 -2.32,-0.6 -2.32,-2.04 0,-2.84 2.92,-5.68 4.92,-7.24 0.24,-0.2 1.08,-0.84 1.16,-0.88 l 3.68,-2.36 0.24,-0.6 0.68,-2.04 -1.08,1.04 c -0.04,0 -0.44,0.36 -0.6,0.48 -0.72,0.56 -1.64,1.16 -2.56,1.16 -1.2,0 -1.92,-1.16 -1.92,-2.24 0,-0.64 0.6,-3 1.04,-3.44 l 1.92,-3.72 c 0.08,-0.12 0.24,-0.52 0.28,-0.56 z m 1.52,11.24 h -0.04 l -0.52,0.32 -1.08,0.8 -1.84,1.56 -1.56,1.48 C 53.6,38.8 52.96,39.44 52.8,39.64 52.04,40.4 50.84,42 50.84,43 c 0,0.68 0.64,1.04 1.28,1.04 1.76,0 4.2,-3.68 4.68,-5.16 l 1.96,-4.4 c -0.04,0 -0.04,0.04 0,0.04 z m 8.32,-8.24 c 0,-3.16 2.08,-6.48 5.56,-6.48 0.52,0 1,0.24 1.28,0.68 0.04,0.12 0.4,0.68 0.44,0.84 0,0 -0.08,0 -0.12,-0.04 -0.44,-0.2 -0.84,-0.48 -1.32,-0.48 -1.64,0 -2.64,2.56 -2.64,3.92 0,0.52 0.08,1 0.24,1.48 l 0.76,2.64 0.12,0.8 c 0.04,0 0.12,-0.08 0.16,-0.08 l 1.84,-0.88 c 1.8,-0.92 3.36,-2.12 4.6,-3.68 0.08,-0.08 0.24,-0.08 0.32,-0.08 0.32,0 0.56,0.2 0.56,0.52 v 0.12 C 78,27.08 75.16,29 73.64,29.68 l -2.16,1.04 -0.04,0.08 C 71.4,31.56 71.28,32.28 71,33 c -1.24,3.12 -4.8,5.16 -8.08,5.16 -0.88,-0.12 -1.56,-0.6 -1.72,-1.48 0,-2.04 1.72,-3.12 3.32,-4 0.2,-0.12 0.88,-0.48 1,-0.52 l 2,-0.88 c 0.04,0 0.04,-0.08 0.04,-0.08 v -0.4 c 0,-0.16 0,-0.44 -0.04,-0.64 L 67.2,27.76 C 67.12,27.28 67.08,26.8 67.08,26.28 Z m -3,7.8 c -0.68,0.36 -1.32,1.24 -1.32,2.04 0,0.44 0.32,0.6 0.72,0.6 1.48,0 2.6,-1.76 3.24,-2.88 0,-0.08 0.2,-0.44 0.28,-0.56 0.08,-0.16 0.28,-0.56 0.28,-0.8 -0.04,0 -0.96,0.44 -1.36,0.64 -0.28,0.12 -1.56,0.8 -1.84,0.96 z"
       id="path415" />
  </g>
</svg>
